<?xml version="1.0" standalone="no"?>
<!DOCTYPE svg PUBLIC "-//W3C//DTD SVG 20010904//EN"
 "http://www.w3.org/TR/2001/REC-SVG-20010904/DTD/svg10.dtd">
<svg version="1.0" xmlns="http://www.w3.org/2000/svg"
 width="350.000000pt" height="350.000000pt" viewBox="0 0 350.000000 350.000000"
 preserveAspectRatio="xMidYMid meet">
<metadata>
Created by potrace 1.11, written by Peter Selinger 2001-2013
</metadata>
<g transform="translate(0.000000,350.000000) scale(0.100000,-0.100000)"
fill="#000000" stroke="none">
<path d="M215 1974 c-43 -14 -84 -57 -87 -89 -6 -70 11 -111 57 -141 29 -19
111 -22 143 -5 20 11 23 19 20 59 -3 43 -5 47 -31 50 -16 2 -35 1 -43 -2 -19
-7 -6 -36 17 -36 21 0 28 -39 7 -41 -7 0 -25 -3 -40 -5 -39 -7 -89 40 -90 84
-2 68 67 116 125 87 16 -8 33 -12 38 -9 18 11 8 32 -18 42 -53 19 -59 20 -98
6z"/>
<path d="M720 1978 c-119 -32 -132 -196 -20 -242 90 -36 187 29 181 123 -5 84
-81 140 -161 119z m103 -69 c41 -51 12 -130 -54 -144 -51 -11 -109 33 -109 84
0 86 108 126 163 60z"/>
<path d="M2400 1982 c-48 -6 -80 -25 -101 -58 -54 -88 4 -196 106 -198 53 0
102 28 85 49 -10 12 -16 12 -42 -1 -56 -29 -128 13 -128 75 0 31 34 91 52 92
7 0 22 2 33 4 11 2 31 -3 44 -11 20 -14 25 -14 38 -2 12 13 11 17 -9 30 -31
20 -49 24 -78 20z"/>
<path d="M3235 1978 c-58 -16 -95 -63 -95 -123 0 -93 88 -152 180 -122 32 11
35 16 40 60 4 26 4 50 1 52 -2 3 -22 5 -43 5 -32 0 -39 -3 -36 -17 2 -10 13
-19 25 -21 15 -2 19 -8 16 -23 -3 -10 -8 -19 -12 -20 -3 0 -17 -2 -30 -5 -37
-7 -89 31 -97 70 -14 77 64 139 125 100 20 -14 25 -14 38 -2 12 13 11 17 -9
30 -31 20 -67 26 -103 16z"/>
<path d="M401 1855 c2 -115 3 -125 20 -125 18 0 25 27 20 81 -1 10 7 15 25 15
21 0 30 -9 50 -48 17 -33 31 -48 44 -48 25 0 25 2 -1 51 -20 41 -20 41 -1 63
27 30 35 59 21 89 -15 34 -49 47 -120 47 l-59 0 1 -125z m136 69 c7 -10 9 -24
4 -37 -7 -18 -18 -23 -55 -25 l-46 -3 0 39 c0 21 2 41 5 44 11 11 80 -3 92
-18z"/>
<path d="M910 1968 c0 -28 66 -239 74 -241 6 -1 24 38 42 87 l31 90 21 -57
c12 -31 24 -67 28 -81 5 -22 34 -58 34 -43 0 3 16 61 35 128 19 68 35 124 35
126 0 2 -9 3 -20 3 -14 0 -22 -10 -30 -40 -5 -22 -15 -59 -21 -82 l-11 -42
-12 29 c-7 17 -21 54 -30 83 -10 28 -23 52 -30 52 -6 0 -22 -34 -35 -75 -13
-41 -26 -77 -31 -80 -4 -2 -13 19 -19 48 -16 74 -19 86 -26 97 -9 14 -35 12
-35 -2z"/>
<path d="M1222 1963 c2 -10 13 -19 26 -19 12 -1 26 -2 31 -3 5 0 8 -48 8 -106
-2 -101 -1 -105 19 -105 21 0 22 4 20 101 0 57 3 104 9 109 6 4 20 6 33 4 17
-3 22 1 22 16 0 18 -7 20 -86 20 -76 0 -85 -2 -82 -17z"/>
<path d="M1430 1855 c0 -118 1 -125 20 -125 18 0 20 7 20 55 l0 55 64 -2 63
-2 0 -49 c0 -45 15 -73 34 -62 3 3 6 60 5 127 -1 108 -3 123 -18 126 -13 2
-18 -3 -19 -20 -3 -89 3 -82 -66 -84 l-63 -2 0 54 c0 47 -2 54 -20 54 -19 0
-20 -7 -20 -125z"/>
<path d="M1783 1855 c0 -115 2 -125 19 -125 10 0 18 8 19 18 1 9 2 33 2 52 l2
35 63 2 62 2 0 -55 c0 -47 2 -54 20 -54 19 0 20 7 20 125 0 118 -1 125 -20
125 -18 0 -20 -7 -20 -55 l0 -54 -62 2 -63 3 -1 34 c-1 19 -2 43 -3 53 -1 9
-9 17 -19 17 -17 0 -19 -10 -19 -125z"/>
<path d="M2113 1933 c-11 -27 -37 -83 -56 -125 l-36 -78 23 0 c17 0 26 7 30
25 6 23 11 25 66 25 55 0 62 -2 72 -25 11 -24 48 -36 48 -16 0 18 -109 241
-117 241 -5 0 -18 -21 -30 -47z m55 -78 l20 -40 -39 -1 c-27 -1 -39 3 -39 13
0 15 30 77 35 71 1 -1 12 -21 23 -43z"/>
<path d="M2548 1973 c-3 -4 -4 -60 -4 -123 1 -107 2 -115 21 -115 16 0 20 8
21 50 1 28 2 51 3 53 0 2 22 -21 49 -52 31 -36 55 -56 70 -56 12 0 22 3 22 8
-1 4 -23 31 -50 61 -28 30 -50 58 -50 63 0 5 24 33 52 61 48 47 51 52 30 55
-16 2 -36 -11 -72 -47 -28 -28 -52 -51 -53 -51 -2 0 -3 21 -3 47 1 37 -3 48
-16 51 -9 2 -18 -1 -20 -5z"/>
<path d="M2770 1855 c0 -118 1 -125 20 -125 19 0 20 7 20 125 0 118 -1 125
-20 125 -19 0 -20 -7 -20 -125z"/>
<path d="M2879 1943 c-1 -52 -1 -174 0 -195 1 -11 9 -18 20 -18 17 0 19 8 17
85 0 47 2 85 5 85 4 0 13 -10 22 -22 8 -13 27 -36 41 -53 15 -16 41 -47 58
-67 17 -20 35 -35 40 -32 4 3 8 61 8 130 0 117 -1 124 -20 124 -17 0 -20 -8
-22 -84 l-3 -84 -73 84 c-40 46 -78 84 -83 84 -5 0 -9 -17 -10 -37z"/>
<path d="M1353 1647 c-52 -23 -47 -110 6 -124 25 -7 62 -5 70 3 2 2 5 15 6 29
3 21 -1 25 -23 25 -25 0 -25 -1 -6 -14 26 -20 6 -41 -31 -32 -38 10 -52 48
-31 81 16 24 22 26 59 20 33 -5 38 -3 24 5 -26 17 -49 19 -74 7z"/>
<path d="M1467 1645 c-3 -9 -2 -89 2 -121 1 -11 67 -12 78 0 6 6 -29 10 -55 7
-9 -2 -12 6 -10 21 2 16 12 25 33 29 32 7 29 11 -7 13 -16 1 -23 8 -24 24 -1
19 4 22 32 22 19 0 34 3 34 8 0 11 -79 9 -83 -3z"/>
<path d="M1679 1650 c-3 -8 -5 -34 -4 -58 l1 -43 -23 28 c-13 15 -31 38 -39
51 -26 36 -34 26 -34 -43 0 -36 4 -65 9 -65 4 0 8 20 7 45 -1 25 2 45 6 45 4
0 25 -23 45 -51 l38 -50 3 35 c4 49 -2 124 -9 106z"/>
<path d="M1745 1639 c-63 -51 6 -154 76 -112 23 14 23 14 -13 9 -41 -5 -68 15
-68 52 0 35 28 55 69 47 24 -4 33 -3 26 4 -20 20 -64 20 -90 0z"/>
<path d="M1869 1651 c-6 -35 -4 -123 3 -127 15 -10 69 -11 74 -2 5 7 -25 12
-53 9 -8 -1 -12 8 -11 24 2 21 7 25 32 25 16 0 26 3 22 8 -4 4 -17 7 -29 7
-15 0 -22 6 -22 20 0 15 9 22 35 26 19 4 33 7 30 9 -11 5 -80 6 -81 1z"/>
<path d="M2038 1652 c-25 -5 -25 -128 0 -134 20 -5 49 2 77 19 21 12 27 75 9
93 -14 14 -65 27 -86 22z m64 -29 c21 -19 24 -56 5 -71 -6 -6 -24 -13 -40 -17
l-27 -7 0 56 c0 51 2 56 22 56 12 0 30 -7 40 -17z"/>
<path d="M2250 1647 c-54 -27 -49 -105 7 -124 40 -14 73 0 73 32 0 18 -5 25
-20 25 -11 0 -20 -5 -20 -11 0 -5 4 -8 9 -5 5 3 11 -1 14 -9 9 -22 -30 -29
-58 -11 -29 19 -33 57 -8 81 12 12 25 15 52 10 23 -4 32 -3 26 3 -18 18 -50
22 -75 9z"/>
<path d="M2404 1648 c-3 -4 1 -8 9 -8 18 0 23 -21 22 -77 0 -24 3 -43 7 -43 5
0 8 27 8 60 0 55 2 60 22 60 12 0 18 3 14 7 -9 10 -76 10 -82 1z"/>
<path d="M2512 1593 c-16 -38 -28 -70 -25 -73 2 -3 9 3 14 13 7 11 22 17 44
17 22 0 37 -6 44 -17 5 -10 12 -15 15 -12 6 5 -51 139 -59 139 -1 0 -16 -30
-33 -67z m58 -23 c0 -4 -11 -6 -25 -6 -14 0 -25 1 -25 2 0 2 5 15 11 31 l11
28 13 -25 c8 -14 14 -27 15 -30z"/>
<path d="M2630 1593 c0 -66 2 -71 23 -75 13 -3 32 -1 43 3 20 8 16 10 -26 12
-23 2 -25 5 -25 59 0 31 -4 60 -8 64 -4 4 -7 -24 -7 -63z"/>
<path d="M2725 1649 c-10 -16 -2 -129 9 -130 6 0 24 -2 39 -3 16 -1 31 2 33 6
5 8 -26 12 -53 9 -8 -1 -13 9 -13 24 0 21 4 25 32 25 17 0 28 3 24 8 -4 4 -17
7 -29 7 -15 0 -23 7 -25 23 -3 19 1 22 34 22 21 0 35 2 32 5 -10 10 -78 13
-83 4z"/>
<path d="M2893 1653 c-9 -3 -13 -27 -13 -69 0 -44 4 -63 11 -59 6 4 8 13 5 21
-3 8 0 15 7 16 7 0 17 2 23 2 19 2 44 28 44 46 0 30 -45 54 -77 43z m54 -25
c16 -13 2 -41 -23 -44 -22 -3 -33 12 -27 35 5 19 31 24 50 9z"/>
<path d="M3119 1650 c-6 -29 -4 -122 3 -126 7 -5 12 18 9 39 0 4 8 7 19 7 13
0 24 -10 30 -25 5 -14 14 -25 20 -25 14 0 13 13 -2 28 -10 10 -10 17 0 32 19
31 15 58 -10 66 -27 10 -68 12 -69 4z m69 -23 c15 -18 0 -38 -32 -41 -23 -3
-26 0 -24 25 2 22 7 29 24 29 12 0 26 -6 32 -13z"/>
<path d="M3304 1646 c-22 -16 -14 -48 15 -63 33 -16 47 -41 27 -49 -8 -3 -24
-1 -35 6 -13 7 -21 7 -21 1 0 -17 34 -29 58 -20 34 13 30 53 -8 69 -39 16 -43
55 -5 48 14 -3 28 -1 31 3 3 5 2 9 -3 10 -4 0 -16 2 -25 4 -9 2 -24 -2 -34 -9z"/>
<path d="M1207 1588 c-15 -34 -24 -64 -21 -67 3 -3 10 2 15 12 13 22 74 24 83
2 3 -8 10 -15 15 -15 11 0 -42 123 -55 127 -5 2 -22 -25 -37 -59z m55 -7 c2
-8 -6 -14 -19 -16 -27 -2 -26 -4 -12 32 8 22 12 25 19 13 5 -9 10 -22 12 -29z"/>
<path d="M2166 1593 c2 -71 2 -73 12 -73 4 0 7 29 7 65 0 37 -4 65 -10 65 -6
0 -9 -25 -9 -57z"/>
<path d="M2360 1585 c0 -37 4 -65 10 -65 6 0 10 28 10 65 0 37 -4 65 -10 65
-6 0 -10 -28 -10 -65z"/>
<path d="M2998 1587 c-14 -34 -24 -64 -21 -67 2 -3 9 3 14 13 13 22 74 24 83
2 3 -8 10 -15 15 -15 11 0 -42 123 -55 127 -5 1 -21 -25 -36 -60z m54 -6 c2
-7 -7 -15 -19 -17 -26 -4 -26 -4 -12 33 8 22 12 25 19 13 5 -9 10 -22 12 -29z"/>
<path d="M3242 1585 c1 -36 5 -65 10 -65 4 0 8 29 8 65 0 36 -4 65 -10 65 -5
0 -9 -29 -8 -65z"/>
</g>
</svg>
